<svg fill="#ee3534" xmlns="http://www.w3.org/2000/svg" width="32" height="32" viewBox="0 0 32 32"><g transform="translate(0 -1020.362)"><path id="dumbbell" style="line-height:normal;text-indent:0;text-align:start;text-decoration-line:none;text-decoration-style:solid;text-decoration-color:#000;text-transform:none;white-space:normal;isolation:auto;mix-blend-mode:normal;solid-color:#000;solid-opacity:1" d="m 5.8187,1034.7313 a 0.50012689,0.50005083 0 0 0 -0.3458,0.1465 l -2.6371,2.6387 a 0.50012689,0.50005083 0 0 0 0,0.707 l 11.3045,11.3047 a 0.50012689,0.50005083 0 0 0 0.7071,0 l 2.6391,-2.6386 a 0.50012689,0.50005083 0 0 0 0,-0.7071 l -5.6532,-5.6523 a 0.50012689,0.50005083 0 1 0 -0.7071,0.707 l 5.2996,5.2988 -1.9319,1.9317 -10.5973,-10.5977 1.93,-1.9316 2.4729,2.4726 a 0.50012689,0.50005083 0 1 0 0.7071,-0.707 l -2.8265,-2.8262 a 0.50012689,0.50005083 0 0 0 -0.3614,-0.1465 z" color="#000" enable-background="accumulate" font-family="sans-serif" font-weight="400" overflow="visible"/><path style="line-height:normal;text-indent:0;text-align:start;text-decoration-line:none;text-decoration-style:solid;text-decoration-color:#000;text-transform:none;white-space:normal;isolation:auto;mix-blend-mode:normal;solid-color:#000;solid-opacity:1" d="m 6.5747,1045.2782 a 0.50012689,0.50005083 0 0 0 -0.3477,0.8574 l 3.5806,3.5801 a 0.50012689,0.50005083 0 0 0 0.7072,0 l 2.26,-2.2597 a 0.50012689,0.50005083 0 1 0 -0.7071,-0.7071 l -1.9066,1.9063 -3.227,-3.2266 a 0.50012689,0.50005083 0 0 0 -0.3594,-0.1504 z" color="#000" enable-background="accumulate" font-family="sans-serif" font-weight="400" overflow="visible"/><path style="line-height:normal;text-indent:0;text-align:start;text-decoration-line:none;text-decoration-style:solid;text-decoration-color:#000;text-transform:none;white-space:normal;isolation:auto;mix-blend-mode:normal;solid-color:#000;solid-opacity:1" d="m 5.2522,1039.4364 a 0.50012689,0.50005083 0 0 0 -0.3438,0.1524 l -2.262,2.2617 a 0.50012689,0.50005083 0 0 0 0,0.707 l 1.9085,1.9063 -1.5316,1.5312 a 0.50012689,0.50005083 0 0 0 0,0.707 l 2.6391,2.6368 a 0.50012689,0.50005083 0 0 0 0.7071,0 l 1.8831,-1.8828 a 0.50012689,0.50005083 0 1 0 -0.7071,-0.7071 l -1.5295,1.5293 -1.9319,-1.9297 1.5314,-1.5312 a 0.50012689,0.50005083 0 0 0 0,-0.707 l -1.9085,-1.9063 1.9085,-1.9082 a 0.50012689,0.50005083 0 0 0 -0.3633,-0.8594 z" color="#000" enable-background="accumulate" font-family="sans-serif" font-weight="400" overflow="visible"/><path style="line-height:normal;text-indent:0;text-align:start;text-decoration-line:none;text-decoration-style:solid;text-decoration-color:#000;text-transform:none;white-space:normal;isolation:auto;mix-blend-mode:normal;solid-color:#000;solid-opacity:1" fill-rule="evenodd" d="M18.8519 1030.1688l-9.0443 9.043.7072.707 9.0442-9.0429zM21.491 1032.8056l-9.0463 9.0449.7072.707 9.0463-9.0449z" color="#000" enable-background="accumulate" font-family="sans-serif" font-weight="400" overflow="visible"/><path style="line-height:normal;text-indent:0;text-align:start;text-decoration-line:none;text-decoration-style:solid;text-decoration-color:#000;text-transform:none;white-space:normal;isolation:auto;mix-blend-mode:normal;solid-color:#000;solid-opacity:1" d="m 17.5021,1023.0517 a 0.50012689,0.50005083 0 0 0 -0.3457,0.1464 l -2.6391,2.6368 a 0.50012689,0.50005083 0 0 0 0,0.707 l 5.6532,5.6523 a 0.50012689,0.50005083 0 1 0 0.7072,-0.707 l -5.2997,-5.2988 1.9319,-1.9297 10.5994,10.5957 -1.932,1.9316 -2.473,-2.4726 a 0.50012689,0.50005083 0 1 0 -0.7072,0.707 l 2.8266,2.8262 a 0.50012689,0.50005083 0 0 0 0.7071,0 l 2.6391,-2.6387 a 0.50012689,0.50005083 0 0 0 0,-0.707 l -11.3064,-11.3028 a 0.50012689,0.50005083 0 0 0 -0.3614,-0.1464 z" color="#000" enable-background="accumulate" font-family="sans-serif" font-weight="400" overflow="visible"/><path style="line-height:normal;text-indent:0;text-align:start;text-decoration-line:none;text-decoration-style:solid;text-decoration-color:#000;text-transform:none;white-space:normal;isolation:auto;mix-blend-mode:normal;solid-color:#000;solid-opacity:1" d="m 21.8368,1022.8622 a 0.50012689,0.50005083 0 0 0 -0.3458,0.1465 l -2.262,2.2617 a 0.50012689,0.50005083 0 1 0 0.7071,0.707 l 1.9085,-1.9082 1.8421,1.8418 0,0.01 a 0.50012689,0.50005083 0 0 0 0.1172,0.1172 l 1.2619,1.2617 a 0.50012689,0.50005083 0 1 0 0.7071,-0.707 l -0.965,-0.9649 1.1779,-1.1777 1.93,1.9316 -1.5295,1.5293 a 0.50012689,0.50005083 0 0 0 0,0.7071 l 1.9066,1.9082 -1.9066,1.9062 a 0.50012689,0.50005083 0 1 0 0.7071,0.707 l 2.2601,-2.2597 a 0.50012689,0.50005083 0 0 0 0,-0.7071 l -1.9065,-1.9082 1.5296,-1.5293 a 0.50012689,0.50005083 0 0 0 0,-0.707 l -2.6372,-2.6387 a 0.50012689,0.50005083 0 0 0 -0.7071,0 l -1.5315,1.5313 -1.9065,-1.9082 a 0.50012689,0.50005083 0 0 0 -0.3614,-0.1465 z" color="#000" enable-background="accumulate" font-family="sans-serif" font-weight="400" overflow="visible"/></g></svg>